<svg width="25" height="25" viewBox="0 0 25 25" fill="none" xmlns="http://www.w3.org/2000/svg">
<path fill-rule="evenodd" clip-rule="evenodd" d="M9.5 2.5C9.5 2.08579 9.16421 1.75 8.75 1.75C8.33579 1.75 8 2.08579 8 2.5V4H7.75C5.54086 4 3.75 5.79086 3.75 8V8.75H21.75V8C21.75 5.79086 19.9591 4 17.75 4H17.5V2.5C17.5 2.08579 17.1642 1.75 16.75 1.75C16.3358 1.75 16 2.08579 16 2.5V4H9.5V2.5ZM21.75 10.25H3.75V18.5C3.75 20.7091 5.54086 22.5 7.75 22.5H17.75C19.9591 22.5 21.75 20.7091 21.75 18.5V10.25ZM16.3145 13.9939C16.5872 13.6822 16.5556 13.2083 16.2439 12.9356C15.9322 12.6628 15.4584 12.6944 15.1856 13.0061L12.3157 16.286C12.2276 16.3867 12.0758 16.4002 11.9714 16.3166L10.2185 14.9144C9.8951 14.6556 9.42313 14.708 9.16438 15.0315C8.90562 15.3549 8.95806 15.8269 9.28151 16.0857L11.0343 17.4879C11.7656 18.0729 12.8279 17.9786 13.4446 17.2738L16.3145 13.9939Z" fill="white"/>
</svg>
