<svg width="60" height="60" viewBox="0 0 60 60" fill="none" xmlns="http://www.w3.org/2000/svg">
<circle cx="30" cy="30" r="30" fill="#D40808"/>
<circle cx="30" cy="30" r="24.5" fill="#D40808" stroke="white"/>
<rect width="24" height="24" transform="translate(30 13.0294) rotate(45)" fill="#D40808"/>
<path d="M24.3431 32.8284C23.5621 33.6095 23.5621 34.8758 24.3431 35.6568C25.1242 36.4379 26.3905 36.4379 27.1716 35.6568L30 32.8284L32.8284 35.6568C33.6095 36.4379 34.8758 36.4379 35.6569 35.6568C36.4379 34.8758 36.4379 33.6095 35.6569 32.8284L32.8284 30L35.6569 27.1716C36.4379 26.3905 36.4379 25.1242 35.6569 24.3431C34.8758 23.5621 33.6095 23.5621 32.8284 24.3431L30 27.1716L27.1716 24.3431C26.3905 23.5621 25.1242 23.5621 24.3431 24.3431C23.5621 25.1242 23.5621 26.3905 24.3431 27.1716L27.1716 30L24.3431 32.8284Z" fill="white"/>
</svg>
