<svg width="24" height="25" viewBox="0 0 24 25" fill="none" xmlns="http://www.w3.org/2000/svg">
<path fill-rule="evenodd" clip-rule="evenodd" d="M9 4.5C9 5.60457 8.10457 6.5 7 6.5C5.89543 6.5 5 5.60457 5 4.5C5 3.39543 5.89543 2.5 7 2.5C8.10457 2.5 9 3.39543 9 4.5ZM7 6.5C5.34315 6.5 4 7.39543 4 8.5C4 9.60457 5.34315 10.5 7 10.5C8.65685 10.5 10 9.60457 10 8.5C10 7.39543 8.65685 6.5 7 6.5ZM18 18.5C19.1046 18.5 20 17.6046 20 16.5C20 15.3954 19.1046 14.5 18 14.5C16.8954 14.5 16 15.3954 16 16.5C16 17.6046 16.8954 18.5 18 18.5ZM18 18.5C19.6569 18.5 21 19.3954 21 20.5C21 21.6046 19.6569 22.5 18 22.5C16.3431 22.5 15 21.6046 15 20.5C15 19.3954 16.3431 18.5 18 18.5ZM11.25 3.5C11.25 3.08579 11.5858 2.75 12 2.75C17.3848 2.75 21.75 7.11522 21.75 12.5C21.75 12.9142 21.4142 13.25 21 13.25C20.5858 13.25 20.25 12.9142 20.25 12.5C20.25 7.94365 16.5563 4.25 12 4.25C11.5858 4.25 11.25 3.91421 11.25 3.5ZM3 11.75C3.41421 11.75 3.75 12.0858 3.75 12.5C3.75 17.0563 7.44365 20.75 12 20.75C12.4142 20.75 12.75 21.0858 12.75 21.5C12.75 21.9142 12.4142 22.25 12 22.25C6.61522 22.25 2.25 17.8848 2.25 12.5C2.25 12.0858 2.58579 11.75 3 11.75Z" fill="white"/>
</svg>
