<svg width="24" height="25" viewBox="0 0 24 25" fill="none" xmlns="http://www.w3.org/2000/svg">
<path fill-rule="evenodd" clip-rule="evenodd" d="M8.28174 1.25C8.69595 1.25 9.03174 1.58579 9.03174 2V3.5H15.5317V2C15.5317 1.58579 15.8675 1.25 16.2817 1.25C16.696 1.25 17.0317 1.58579 17.0317 2V3.5H17.2817C19.4909 3.5 21.2817 5.29086 21.2817 7.5V8.58579C21.2817 8.851 21.1764 9.10536 20.9888 9.29289L8.57463 21.7071C8.3871 21.8946 8.13274 22 7.86752 22H7.28174C5.0726 22 3.28174 20.2091 3.28174 18V7.5C3.28174 5.29086 5.0726 3.5 7.28174 3.5H7.53174V2C7.53174 1.58579 7.86752 1.25 8.28174 1.25ZM15.2817 9.75C15.696 9.75 16.0317 9.41421 16.0317 9C16.0317 8.58579 15.696 8.25 15.2817 8.25H8.28174C7.86752 8.25 7.53174 8.58579 7.53174 9C7.53174 9.41421 7.86752 9.75 8.28174 9.75H15.2817ZM12.2817 13.75C12.696 13.75 13.0317 13.4142 13.0317 13C13.0317 12.5858 12.696 12.25 12.2817 12.25H8.28174C7.86752 12.25 7.53174 12.5858 7.53174 13C7.53174 13.4142 7.86752 13.75 8.28174 13.75H12.2817ZM10.0317 17C10.0317 17.4142 9.69595 17.75 9.28174 17.75H8.28174C7.86752 17.75 7.53174 17.4142 7.53174 17C7.53174 16.5858 7.86752 16.25 8.28174 16.25H9.28174C9.69595 16.25 10.0317 16.5858 10.0317 17ZM20.7915 13.4902C20.1379 12.8366 19.0781 12.8366 18.4244 13.4902L13.4096 18.505C13.289 18.6257 13.2011 18.7751 13.1543 18.9392L12.5281 21.1357C12.4207 21.5127 12.7691 21.8611 13.1461 21.7536L15.3425 21.1274C15.5066 21.0806 15.656 20.9928 15.7767 20.8721L20.7915 15.8573C21.4452 15.2037 21.4452 14.1439 20.7915 13.4902Z" fill="white"/>
</svg>
