<svg width="24" height="24" viewBox="0 0 24 24" fill="none" xmlns="http://www.w3.org/2000/svg">
<path d="M6.34315 14.8284C5.5621 15.6095 5.5621 16.8758 6.34315 17.6568C7.12419 18.4379 8.39052 18.4379 9.17157 17.6568L12 14.8284L14.8284 17.6568C15.6095 18.4379 16.8758 18.4379 17.6569 17.6568C18.4379 16.8758 18.4379 15.6095 17.6569 14.8284L14.8284 12L17.6569 9.17156C18.4379 8.39051 18.4379 7.12418 17.6569 6.34313C16.8758 5.56208 15.6095 5.56208 14.8284 6.34313L12 9.17156L9.17157 6.34313C8.39053 5.56208 7.1242 5.56208 6.34315 6.34313C5.5621 7.12418 5.5621 8.39051 6.34315 9.17156L9.17157 12L6.34315 14.8284Z" fill="white"/>
</svg>
