<svg width="24" height="24" viewBox="0 0 24 24" fill="none" xmlns="http://www.w3.org/2000/svg">
<path fill-rule="evenodd" clip-rule="evenodd" d="M20.0146 2.73967C20.4147 2.84688 20.6521 3.25813 20.5449 3.65823L20.1789 5.02425C20.0717 5.42435 19.6604 5.66179 19.2603 5.55458C18.8602 5.44738 18.6228 5.03612 18.73 4.63603L19.096 3.27C19.2032 2.8699 19.6145 2.63246 20.0146 2.73967ZM15.8685 4.43585C15.1957 3.27051 13.5872 3.08871 12.6713 4.07448L6.22278 11.0146C6.44775 11.2186 6.64531 11.4606 6.80532 11.7377L9.30532 16.0679C9.46535 16.3451 9.57612 16.6372 9.64035 16.934L18.8749 14.8195C20.1866 14.5191 20.8334 13.0353 20.1606 11.87L15.8685 4.43585ZM7.84812 16.7272L5.34812 12.3971C4.9339 11.6796 4.01652 11.4338 3.29908 11.848C2.58164 12.2623 2.33583 13.1796 2.75004 13.8971L5.25004 18.2272C5.66425 18.9446 6.58164 19.1905 7.29908 18.7762C8.01652 18.362 8.26233 17.4446 7.84812 16.7272ZM13.7093 21.1468L11.8059 17.85L14.8655 17.1494L16.3074 19.6468C16.7216 20.3643 16.4758 21.2816 15.7583 21.6958C15.0409 22.1101 14.1235 21.8643 13.7093 21.1468ZM21.6485 7.56987C21.2484 7.46266 20.8372 7.7001 20.73 8.1002C20.6228 8.5003 20.8602 8.91155 21.2603 9.01876L22.6263 9.38478C23.0264 9.49199 23.4377 9.25455 23.5449 8.85445C23.6521 8.45435 23.4147 8.0431 23.0146 7.9359L21.6485 7.56987Z" fill="#666666"/>
</svg>
