<svg width="38" height="38" viewBox="0 0 38 38" fill="none" xmlns="http://www.w3.org/2000/svg">
<circle cx="19" cy="19" r="19" fill="#2563EB"/>
<circle cx="19" cy="19" r="18.5" stroke="white" stroke-opacity="0.4"/>
<path fill-rule="evenodd" clip-rule="evenodd" d="M16.878 12.5503L26.2369 17.2269C27.6989 17.9575 27.6989 20.0426 26.2369 20.7731L16.878 25.4497C15.2135 26.2815 13.4224 24.5711 14.1783 22.8715L15.5419 19.8051C15.5682 19.746 15.5915 19.6859 15.6117 19.625L19.0001 19.625C19.3453 19.625 19.6251 19.3452 19.6251 19C19.6251 18.6548 19.3453 18.375 19.0001 18.375L15.6117 18.375C15.5915 18.3141 15.5682 18.254 15.5419 18.1949L14.1783 15.1285C13.4224 13.429 15.2135 11.7185 16.878 12.5503ZM10.0417 17.3333C10.0417 16.9882 10.3216 16.7083 10.6667 16.7083H12.3334C12.6786 16.7083 12.9584 16.9882 12.9584 17.3333C12.9584 17.6785 12.6786 17.9583 12.3334 17.9583H10.6667C10.3216 17.9583 10.0417 17.6785 10.0417 17.3333ZM10.6667 20.0417C10.3216 20.0417 10.0417 20.3215 10.0417 20.6667C10.0417 21.0119 10.3216 21.2917 10.6667 21.2917H12.3334C12.6786 21.2917 12.9584 21.0119 12.9584 20.6667C12.9584 20.3215 12.6786 20.0417 12.3334 20.0417H10.6667Z" fill="white"/>
</svg>
