<svg width="40" height="40" viewBox="0 0 40 40" fill="none" xmlns="http://www.w3.org/2000/svg">
<rect width="40" height="40" rx="20" fill="#E9EFFD"/>
<path fill-rule="evenodd" clip-rule="evenodd" d="M21.6246 10.3583L26.6246 12.6676C27.2865 12.9734 27.8406 13.4516 28.2467 14.0381L25.0166 15.6532L16.7524 11.1079L18.3754 10.3583C19.4097 9.88058 20.5903 9.88058 21.6246 10.3583ZM15.0606 11.8893L13.3754 12.6676C12.7135 12.9734 12.1594 13.4516 11.7533 14.0381L20 18.1615L23.3862 16.4684L15.0606 11.8893ZM11.1324 15.4047C11.0457 15.7462 11 16.1024 11 16.4662V23.5338C11 25.1766 11.9309 26.6652 13.3754 27.3324L18.3754 29.6417C18.658 29.7722 18.9515 29.8671 19.25 29.9263V19.4635L11.1324 15.4047ZM20.75 29.9263C21.0485 29.8671 21.342 29.7722 21.6246 29.6417L24.25 28.4291V17.7135L20.75 19.4635V29.9263ZM25.75 27.7363L26.6246 27.3324C28.0691 26.6652 29 25.1766 29 23.5338V16.4662C29 16.1024 28.9543 15.7462 28.8676 15.4048L25.75 16.9635V27.7363Z" fill="#2563EB"/>
</svg>
