<svg width="20" height="20" viewBox="0 0 20 20" fill="none" xmlns="http://www.w3.org/2000/svg">
<path fill-rule="evenodd" clip-rule="evenodd" d="M7.87777 3.55031L17.2367 8.22691C18.6987 8.95748 18.6987 11.0426 17.2366 11.7732L7.87777 16.4498C6.21323 17.2815 4.42219 15.5711 5.17802 13.8715L6.54166 10.8052C6.56796 10.746 6.59123 10.6859 6.61147 10.625L9.99984 10.625C10.345 10.625 10.6248 10.3452 10.6248 10C10.6248 9.65486 10.345 9.37504 9.99984 9.37504L6.61147 9.37504C6.59123 9.31418 6.56796 9.25406 6.54166 9.1949L5.17802 6.12858C4.42219 4.42899 6.21323 2.71855 7.87777 3.55031ZM1.0415 8.33337C1.0415 7.9882 1.32133 7.70837 1.6665 7.70837H3.33317C3.67835 7.70837 3.95817 7.9882 3.95817 8.33337C3.95817 8.67855 3.67835 8.95837 3.33317 8.95837H1.6665C1.32133 8.95837 1.0415 8.67855 1.0415 8.33337ZM1.6665 11.0417C1.32133 11.0417 1.0415 11.3215 1.0415 11.6667C1.0415 12.0119 1.32133 12.2917 1.6665 12.2917H3.33317C3.67835 12.2917 3.95817 12.0119 3.95817 11.6667C3.95817 11.3215 3.67835 11.0417 3.33317 11.0417H1.6665Z" fill="white"/>
</svg>
